<svg width="32" height="32" viewBox="0 0 32 32" fill="none" xmlns="http://www.w3.org/2000/svg">
    <rect width="32" height="32" rx="16" fill="#252836" />
    <g clip-path="url(#clip0_588_226)">
        <path
            d="M16 6C10.5074 6 6 10.5074 6 16C6 21.4926 10.5074 26 16 26C21.4926 26 26 21.4926 26 16C26 10.5074 21.4926 6 16 6ZM17.1719 20.6875C17.1719 21.3335 16.646 21.8594 16 21.8594C15.354 21.8594 14.8281 21.3335 14.8281 20.6875V14.8281C14.8281 14.1821 15.354 13.6562 16 13.6562C16.646 13.6562 17.1719 14.1821 17.1719 14.8281V20.6875ZM16 12.4844C15.354 12.4844 14.8281 11.9585 14.8281 11.3125C14.8281 10.6665 15.354 10.1406 16 10.1406C16.646 10.1406 17.1719 10.6665 17.1719 11.3125C17.1719 11.9585 16.646 12.4844 16 12.4844Z"
            fill="#92929D" />
    </g>
    <defs>
        <clipPath id="clip0_588_226">
            <rect width="20" height="20" fill="white" transform="translate(6 6)" />
        </clipPath>
    </defs>
</svg>
