<svg width="32" height="32" viewBox="0 0 32 32" fill="none" xmlns="http://www.w3.org/2000/svg">
    <rect width="32" height="32" rx="16" fill="#252836" />
    <path
        d="M25 9H7C6.73478 9 6.48043 9.10536 6.29289 9.29289C6.10536 9.48043 6 9.73478 6 10C6 10.2652 6.10536 10.5196 6.29289 10.7071C6.48043 10.8946 6.73478 11 7 11H9V23C9.00024 23.7956 9.31639 24.5585 9.87894 25.1211C10.4415 25.6836 11.2044 25.9998 12 26H20C20.7956 25.9998 21.5585 25.6837 22.1211 25.1211C22.6837 24.5585 22.9998 23.7956 23 23V11H25C25.2652 11 25.5196 10.8946 25.7071 10.7071C25.8946 10.5196 26 10.2652 26 10C26 9.73478 25.8946 9.48043 25.7071 9.29289C25.5196 9.10536 25.2652 9 25 9ZM15 20C15 20.2652 14.8946 20.5196 14.7071 20.7071C14.5196 20.8946 14.2652 21 14 21C13.7348 21 13.4804 20.8946 13.2929 20.7071C13.1054 20.5196 13 20.2652 13 20V15C13 14.7348 13.1054 14.4804 13.2929 14.2929C13.4804 14.1054 13.7348 14 14 14C14.2652 14 14.5196 14.1054 14.7071 14.2929C14.8946 14.4804 15 14.7348 15 15V20ZM19 20C19 20.2652 18.8946 20.5196 18.7071 20.7071C18.5196 20.8946 18.2652 21 18 21C17.7348 21 17.4804 20.8946 17.2929 20.7071C17.1054 20.5196 17 20.2652 17 20V15C17 14.7348 17.1054 14.4804 17.2929 14.2929C17.4804 14.1054 17.7348 14 18 14C18.2652 14 18.5196 14.1054 18.7071 14.2929C18.8946 14.4804 19 14.7348 19 15V20Z"
        fill="#92929D" />
    <path
        d="M14 8H18C18.2652 8 18.5196 7.89464 18.7071 7.70711C18.8946 7.51957 19 7.26522 19 7C19 6.73478 18.8946 6.48043 18.7071 6.29289C18.5196 6.10536 18.2652 6 18 6H14C13.7348 6 13.4804 6.10536 13.2929 6.29289C13.1054 6.48043 13 6.73478 13 7C13 7.26522 13.1054 7.51957 13.2929 7.70711C13.4804 7.89464 13.7348 8 14 8V8Z"
        fill="#92929D" />
</svg>
