<svg width="18" height="18" viewBox="0 0 18 18" fill="none" xmlns="http://www.w3.org/2000/svg">
    <path fill-rule="evenodd" clip-rule="evenodd"
        d="M17.64 9.2081C17.64 8.56991 17.5827 7.95628 17.4764 7.36719H9V10.8486H13.8436C13.635 11.9736 13.0009 12.9267 12.0477 13.5649V15.8231H14.9564C16.6582 14.2563 17.64 11.949 17.64 9.2081Z"
        fill="white" />
    <path fill-rule="evenodd" clip-rule="evenodd"
        d="M8.99976 18.0009C11.4298 18.0009 13.467 17.195 14.9561 15.8205L12.0475 13.5623C11.2416 14.1023 10.2107 14.4214 8.99976 14.4214C6.65567 14.4214 4.67158 12.8382 3.96385 10.7109H0.957031V13.0428C2.43794 15.9841 5.48158 18.0009 8.99976 18.0009Z"
        fill="white" />
    <path fill-rule="evenodd" clip-rule="evenodd"
        d="M3.96409 10.7128C3.78409 10.1728 3.68182 9.59594 3.68182 9.00276C3.68182 8.40957 3.78409 7.83276 3.96409 7.29276V4.96094H0.957273C0.347727 6.17594 0 7.55048 0 9.00276C0 10.455 0.347727 11.8296 0.957273 13.0446L3.96409 10.7128Z"
        fill="white" />
    <path fill-rule="evenodd" clip-rule="evenodd"
        d="M8.99976 3.57955C10.3211 3.57955 11.5075 4.03364 12.4402 4.92545L15.0216 2.34409C13.4629 0.891818 11.4257 0 8.99976 0C5.48158 0 2.43794 2.01682 0.957031 4.95818L3.96385 7.29C4.67158 5.16273 6.65567 3.57955 8.99976 3.57955Z"
        fill="white" />
</svg>
