<svg width="32" height="32" viewBox="0 0 32 32" fill="none" xmlns="http://www.w3.org/2000/svg">
    <rect width="32" height="32" rx="16" fill="#252836" />
    <path
        d="M16 6C10.4858 6 6 10.4858 6 16C6 21.5142 10.4858 26 16 26C21.5142 26 26 21.5142 26 16C26 10.4858 21.5142 6 16 6ZM16 21.8333C15.5399 21.8333 15.1667 21.4601 15.1667 21C15.1667 20.5399 15.5399 20.1667 16 20.1667C16.4601 20.1667 16.8333 20.5399 16.8333 21C16.8333 21.4601 16.4601 21.8333 16 21.8333ZM17.3191 16.535C17.0242 16.6708 16.8333 16.9683 16.8333 17.2926V17.6667C16.8333 18.1266 16.4608 18.5 16 18.5C15.5392 18.5 15.1667 18.1266 15.1667 17.6667V17.2926C15.1667 16.32 15.7383 15.4284 16.6209 15.0208C17.47 14.6301 18.0833 13.5925 18.0833 13.0833C18.0833 11.9351 17.1491 11 16 11C14.8509 11 13.9167 11.9351 13.9167 13.0833C13.9167 13.5433 13.5441 13.9167 13.0833 13.9167C12.6225 13.9167 12.25 13.5433 12.25 13.0833C12.25 11.0159 13.9324 9.33328 16 9.33328C18.0676 9.33328 19.75 11.0159 19.75 13.0833C19.75 14.2092 18.7733 15.8642 17.3191 16.535Z"
        fill="#92929D" />
</svg>
