<svg width="32" height="32" viewBox="0 0 32 32" fill="none" xmlns="http://www.w3.org/2000/svg">
    <rect width="32" height="32" rx="16" fill="#252836" />
    <g clip-path="url(#clip0_588_309)">
        <path
            d="M26 16C26 14.6868 25.7413 13.3864 25.2388 12.1732C24.7362 10.9599 23.9997 9.85752 23.0711 8.92893C22.1425 8.00035 21.0401 7.26375 19.8268 6.7612C18.6136 6.25866 17.3132 6 16 6C13.3478 6 10.8043 7.05357 8.92893 8.92893C7.05357 10.8043 6 13.3478 6 16C6 18.6522 7.05357 21.1957 8.92893 23.0711C10.8043 24.9464 13.3478 26 16 26C18.6522 26 21.1957 24.9464 23.0711 23.0711C24.9464 21.1957 26 18.6522 26 16V16ZM23.93 15H21C20.8351 12.6481 20.0293 10.3864 18.67 8.46C20.0665 8.95597 21.2977 9.83007 22.2265 10.9848C23.1553 12.1396 23.745 13.5297 23.93 15V15ZM13.08 17H19C18.7441 19.4706 17.6911 21.7908 16 23.61C14.3101 21.7984 13.2812 19.4693 13.08 17V17ZM13.08 15C13.3129 12.5418 14.3376 10.2257 16 8.4C17.7047 10.2061 18.7601 12.528 19 15H13.08ZM13.44 8.43C12.0735 10.367 11.2548 12.6367 11.07 15H8.07C8.2589 13.5115 8.86261 12.1061 9.81217 10.9444C10.7617 9.78262 12.0189 8.91133 13.44 8.43V8.43ZM8.07 17H11.07C11.2347 19.3613 12.0479 21.6313 13.42 23.56C12.004 23.0763 10.752 22.2052 9.80627 21.0456C8.86055 19.886 8.25902 18.4844 8.07 17V17ZM18.62 23.55C19.9884 21.6207 20.8107 19.3578 21 17H23.95C23.7609 18.4802 23.1615 19.8781 22.2196 21.0356C21.2778 22.193 20.0309 23.064 18.62 23.55V23.55Z"
            fill="#92929D" />
    </g>
    <defs>
        <clipPath id="clip0_588_309">
            <rect width="24" height="24" fill="white" transform="translate(4 4)" />
        </clipPath>
    </defs>
</svg>
