<svg width="32" height="32" viewBox="0 0 32 32" fill="none" xmlns="http://www.w3.org/2000/svg">
    <rect width="32" height="32" rx="16" fill="#252836" />
    <path
        d="M18.7825 23.3359C18.7825 24.3258 18.2547 25.0834 17.3977 25.5786C16.5409 26.0735 15.4851 26.0735 14.6299 25.5786C13.7726 25.0834 13.2451 24.3258 13.2451 23.3359"
        fill="#92929D" />
    <path
        d="M16.0132 6.05469C16.7684 6.05469 17.3767 6.52029 17.3767 7.23629C17.3767 7.68695 17.3924 8.02322 17.6756 8.10936C20.0839 8.83656 21.6281 10.5411 21.6281 12.7547V16.4752C21.6281 18.1798 22.3255 18.5248 23.2031 19.1768C24.474 20.1195 24.1839 22.0824 22.7255 22.0811H9.30145C7.84305 22.0824 7.55292 20.1195 8.82385 19.1768C9.70039 18.5248 10.3988 18.1798 10.3988 16.4752V12.7547C10.3988 10.5411 11.9431 8.83656 14.3513 8.10936C14.6337 8.02322 14.6503 7.68695 14.6503 7.23629C14.6505 6.52029 15.2591 6.05469 16.0132 6.05469V6.05469Z"
        fill="#92929D" />
</svg>
