<svg width="32" height="32" viewBox="0 0 32 32" fill="none" xmlns="http://www.w3.org/2000/svg">
    <rect width="32" height="32" rx="16" fill="#252836" />
    <g clip-path="url(#clip0_588_302)">
        <path
            d="M11.0613 26.9875L11.4295 26.8846C11.7836 26.7856 11.9905 26.4182 11.8915 26.0641L7.68177 10.999C7.62237 10.7864 7.48094 10.6061 7.2886 10.4977C7.09625 10.3894 6.86876 10.3619 6.65615 10.4213L6.6086 10.4346C6.16585 10.5583 5.90721 11.0175 6.03091 11.4603L10.2408 26.5254C10.3397 26.8796 10.7071 27.0864 11.0613 26.9875V26.9875Z"
            fill="#92929D" />
        <path
            d="M25.8861 16.4569C24.5511 15.7913 23.3161 14.9416 22.2172 13.9328C22.1248 13.8483 22.0887 13.7185 22.1241 13.5983C22.6686 11.5384 23.0729 9.44395 23.3344 7.32937C23.3758 6.97765 23.1861 6.8742 22.9861 7.11558C19.062 11.8087 12.2723 6.25696 8.23096 10.5225C8.27948 10.6133 8.31765 10.7093 8.34475 10.8087L11.0758 20.588C15.1241 16.3742 21.8896 21.8914 25.8068 17.2087C26.0068 16.9673 26.0448 16.5259 25.8861 16.4569V16.4569Z"
            fill="#92929D" />
    </g>
    <defs>
        <clipPath id="clip0_588_302">
            <rect width="20" height="20" fill="white" transform="translate(6 7)" />
        </clipPath>
    </defs>
</svg>
