<svg width="32" height="32" viewBox="0 0 32 32" fill="none" xmlns="http://www.w3.org/2000/svg">
    <rect width="32" height="32" rx="16" fill="#252836" />
    <path
        d="M24.4443 8.37824L16.5994 6.02473C16.4896 5.99176 16.3725 5.99176 16.2626 6.02473L8.41754 8.37824C8.16973 8.45258 8 8.6807 8 8.93945V17.569C8 18.6914 8.45441 19.8404 9.35055 20.984C10.035 21.8575 10.9819 22.7345 12.1649 23.5909C14.1523 25.0295 16.1093 25.912 16.1916 25.9488C16.2677 25.9829 16.3494 26 16.431 26C16.5127 26 16.5943 25.983 16.6704 25.9488C16.7527 25.912 18.7097 25.0295 20.6971 23.5909C21.8801 22.7345 22.827 21.8575 23.5114 20.984C24.4075 19.8404 24.8619 18.6914 24.8619 17.569V8.93945C24.8619 8.6807 24.6922 8.45258 24.4443 8.37824Z"
        fill="#92929D" />
</svg>
