<svg width="64" height="76" viewBox="0 0 64 76" fill="none" xmlns="http://www.w3.org/2000/svg">
    <path
        d="M31.8976 27.8623C30.4496 27.8623 29.0123 28.1102 27.6479 28.5953L5.39746 36.5064L31.8976 46.5787L32.2653 46.2927V27.8702C32.1427 27.8666 32.0203 27.8623 31.8976 27.8623Z"
        fill="#05858D" />
    <path
        d="M17.9303 32.0503L5.39746 36.5063L17.7885 41.2159C14.9999 38.8447 15.0623 34.3379 17.9303 32.0503Z"
        fill="#05858D" />
    <path
        d="M36.1472 28.5953C34.7828 28.1102 33.3455 27.8623 31.8975 27.8623V46.4303L58.3976 36.5064L36.1472 28.5953Z"
        fill="#12CDD9" />
    <path
        d="M31.8976 45.9849L27.4165 51.2808C27.0451 51.7937 26.3795 51.9997 25.7832 51.7864L5.39746 44.4949V64.1288C5.39746 65.2927 6.12883 66.331 7.22476 66.7231L28.307 74.2637C29.4592 74.6758 30.6739 74.8866 31.8975 74.8866C32.0201 74.8866 32.1427 74.8828 32.2652 74.8787V46.4316L31.8976 45.9849Z"
        fill="#12CDD9" />
    <path
        d="M10.7027 65.6452V46.3925L5.39746 44.4949V64.1288C5.39746 65.2927 6.12883 66.331 7.22476 66.7231L11.9962 68.4297C11.1929 67.7497 10.7027 66.7403 10.7027 65.6452Z"
        fill="#05858D" />
    <path
        d="M38.0119 51.9348C37.4156 52.1482 36.7501 51.9421 36.3786 51.4293L31.8975 45.9851V74.8865C33.1212 74.8865 34.3357 74.6759 35.4881 74.2637L56.5703 66.7231C57.6663 66.331 58.3976 65.2927 58.3976 64.1288V44.6433L38.0119 51.9348Z"
        fill="#12CDD9" />
    <path
        d="M44.3959 4.42223C43.164 3.7921 42.1577 2.78404 41.5304 1.5505C41.3941 1.28257 41.1206 1.1123 40.82 1.1123C40.5192 1.1123 40.2458 1.28257 40.1095 1.5505C39.4822 2.78404 38.4759 3.79195 37.244 4.42223C36.977 4.55879 36.8076 4.83178 36.8076 5.13177V5.15137C36.8076 5.4481 36.9718 5.72197 37.2362 5.85691C38.4641 6.48318 39.4678 7.48455 40.0971 8.71067C40.2321 8.97401 40.5056 9.13729 40.8016 9.13729H40.8387C41.1347 9.13729 41.4081 8.97401 41.5432 8.71067C42.1724 7.48455 43.1762 6.48318 44.4041 5.85691C44.6684 5.72212 44.8326 5.44825 44.8326 5.15137V5.13177C44.8323 4.83192 44.6629 4.55894 44.3959 4.42223Z"
        fill="#FFE02F" />
    <path
        d="M26.4299 7.7133C25.508 7.24172 24.7549 6.48736 24.2854 5.56423C24.1834 5.36369 23.9787 5.23633 23.7537 5.23633C23.5287 5.23633 23.324 5.36369 23.222 5.56423C22.7525 6.48736 21.9995 7.24172 21.0775 7.7133C20.8777 7.81558 20.751 8.01983 20.751 8.24427V8.25896C20.751 8.48102 20.8739 8.68602 21.0717 8.78695C21.9907 9.25557 22.742 10.005 23.2128 10.9227C23.3139 11.1198 23.5186 11.242 23.7401 11.242H23.7678C23.9893 11.242 24.194 11.1198 24.2951 10.9227C24.7659 10.005 25.5172 9.25557 26.4361 8.78695C26.634 8.68602 26.7569 8.48102 26.7569 8.25896V8.24427C26.7565 8.01983 26.6297 7.81558 26.4299 7.7133Z"
        fill="#FFEA7E" />
    <path
        d="M40.2419 5.85691C39.9776 5.72212 39.8134 5.44825 39.8134 5.15137V5.13177C39.8134 4.83178 39.9828 4.55879 40.2498 4.42223C41.0505 4.01268 41.755 3.44267 42.3229 2.75569C42.017 2.38563 41.7501 1.98231 41.5304 1.5505C41.3941 1.28257 41.1206 1.1123 40.82 1.1123C40.5194 1.1123 40.2458 1.28257 40.1095 1.5505C39.4822 2.78404 38.4759 3.79195 37.244 4.42223C36.977 4.55879 36.8076 4.83178 36.8076 5.13177V5.15137C36.8076 5.4481 36.9718 5.72197 37.2362 5.85691C38.4641 6.48318 39.4678 7.48455 40.0971 8.71067C40.2321 8.97401 40.5056 9.13729 40.8016 9.13729H40.8387C41.1347 9.13729 41.4081 8.97401 41.5432 8.71067C41.7603 8.28762 42.0229 7.89202 42.3231 7.52864C41.7532 6.83899 41.046 6.26705 40.2419 5.85691Z"
        fill="#FBC700" />
    <path
        d="M23.6691 8.78695C23.4712 8.68602 23.3485 8.48102 23.3485 8.25896V8.24427C23.3485 8.01983 23.4753 7.81543 23.6751 7.7133C24.1959 7.44686 24.6601 7.08764 25.0526 6.66133C24.7503 6.33298 24.4897 5.9659 24.2854 5.56423C24.1835 5.36369 23.9788 5.23633 23.7537 5.23633C23.5287 5.23633 23.324 5.36369 23.222 5.56423C22.7525 6.48736 21.9995 7.24172 21.0775 7.7133C20.8777 7.81558 20.751 8.01983 20.751 8.24427V8.25896C20.751 8.48102 20.8739 8.68602 21.0716 8.78695C21.9906 9.25557 22.7418 10.005 23.2127 10.9227C23.3138 11.1198 23.5185 11.242 23.7399 11.242H23.7677C23.9892 11.242 24.1938 11.1198 24.2949 10.9227C24.4977 10.5277 24.7551 10.1662 25.0527 9.84249C24.6586 9.41425 24.1924 9.05384 23.6691 8.78695Z"
        fill="#FFE02F" />
    <path
        d="M62.3922 42.0211L58.3976 36.5063L31.8975 45.9849L36.3786 52.1713C36.7501 52.6841 37.4156 52.8902 38.0119 52.6768L61.7182 44.1976C62.6123 43.878 62.9491 42.7898 62.3922 42.0211Z"
        fill="#12CDD9" />
    <path
        d="M1.40334 42.0211L5.39787 36.5063L31.898 45.9849L27.4169 52.1713C27.0454 52.6841 26.3799 52.8902 25.7836 52.6768L2.07711 44.1976C1.1832 43.878 0.846387 42.7898 1.40334 42.0211Z"
        fill="#12CDD9" />
    <path
        d="M5.69204 43.5972L9.71077 38.0491L5.39768 36.5063L1.4033 42.0211C0.846355 42.7898 1.18331 43.8781 2.07707 44.1978L5.78482 45.524C5.32925 45.0052 5.24924 44.2086 5.69204 43.5972Z"
        fill="#05858D" />
    <path
        d="M4.59774 35.8536L0.603356 41.3682C-0.389265 42.7384 0.209543 44.676 1.80394 45.2462L4.38621 46.1698V64.1288C4.38621 65.7587 5.41728 67.2226 6.952 67.7714L28.0341 75.312C30.5551 76.2139 33.3576 76.2447 35.965 75.312L57.0472 67.7714C58.582 67.2226 59.613 65.7587 59.613 64.1288V58.4464C59.613 57.8314 59.1147 57.3331 58.4997 57.3331C57.8847 57.3331 57.3864 57.8314 57.3864 58.4464V64.1288C57.3864 64.8206 56.9488 65.4419 56.2975 65.675L35.2151 73.2156C34.5319 73.4599 33.8283 73.6249 33.1128 73.7086V49.4199L35.579 52.8245C36.232 53.7266 37.4305 54.1044 38.4891 53.7254C39.6689 53.3034 56.8643 47.153 57.3866 46.9662V53.2508C57.3866 53.8658 57.8849 54.3641 58.4999 54.3641C59.1149 54.3641 59.6132 53.8658 59.6132 53.2508V46.1698L62.1954 45.2462C63.7886 44.6763 64.3892 42.739 63.3957 41.368L63.3959 41.3682L59.4015 35.8536C59.2876 35.6961 59.088 35.5342 58.8727 35.4577L49.2225 32.0267C48.643 31.8202 48.0065 32.1232 47.8006 32.7027C47.5945 33.282 47.8972 33.9185 48.4766 34.1246L55.1852 36.5099L33.1127 44.4045V29.0291C34.0541 29.1198 34.9798 29.3256 35.8762 29.6445L43.5537 32.3743C44.1331 32.5806 44.7697 32.2778 44.9756 31.6983C45.1816 31.119 44.879 30.4824 44.2996 30.2764L36.6221 27.5466C33.7069 26.5099 30.443 26.4561 27.3767 27.5466L5.12634 35.4577C4.91407 35.5333 4.71709 35.6888 4.59774 35.8536ZM2.40646 42.6744L5.91084 37.8362L30.2273 46.5336C29.4021 47.6727 30.1216 46.6797 26.6166 51.5185C26.536 51.6297 26.3889 51.6748 26.2601 51.629C25.8459 51.4808 2.98671 43.3046 2.55371 43.1497C2.35822 43.0797 2.28459 42.8426 2.40646 42.6744ZM7.70163 65.675C7.05027 65.4421 6.61267 64.8206 6.61267 64.1288V46.9662L25.5103 53.7254C26.5786 54.1076 27.7684 53.7172 28.4152 52.831C28.4168 52.8288 28.4186 52.8269 28.4202 52.8246C28.4202 52.8245 28.4202 52.8245 28.4202 52.8245L30.8862 49.4199V73.7084C30.1708 73.6247 29.467 73.4598 28.7839 73.2156L7.70163 65.675ZM61.5926 42.6744C61.7143 42.8425 61.6407 43.0797 61.4455 43.1497C61.2227 43.2295 37.9732 51.5451 37.7391 51.6288C37.6103 51.6751 37.463 51.6298 37.3824 51.5185L33.7716 46.5336L58.0882 37.8362L61.5926 42.6744ZM28.1227 29.6445C29.0192 29.3258 29.9447 29.1199 30.8861 29.0291V44.4045C29.9313 44.063 9.67381 36.8174 8.81374 36.5097L28.1227 29.6445Z"
        fill="#252836" />
    <path
        d="M33.1124 23.2002V9.2864C33.1124 8.67141 32.614 8.1731 31.999 8.1731C31.3841 8.1731 30.8857 8.67141 30.8857 9.2864V23.2C30.8857 23.815 31.3841 24.3133 31.999 24.3133C32.614 24.3133 33.1124 23.815 33.1124 23.2002Z"
        fill="#FF8700" />
    <path
        d="M46.7407 11.4147C46.4227 11.5538 38.9396 14.9262 37.7023 24.2024C37.6135 24.8685 38.131 25.463 38.8073 25.463C39.3567 25.463 39.8348 25.0562 39.9095 24.4966C40.3558 21.1494 41.7809 18.2802 44.1449 15.9687C45.9215 14.2315 47.5975 13.4706 47.6351 13.4539C48.1968 13.2067 48.4528 12.5513 48.2068 11.9887C47.9606 11.4254 47.3046 11.1686 46.7407 11.4147Z"
        fill="#FF8700" />
    <path
        d="M44.4784 26.5806C44.1729 27.1142 44.3578 27.7944 44.8915 28.0997C45.4244 28.4049 46.105 28.2207 46.4106 27.6866C48.9965 23.1693 52.8375 21.4058 55.6046 20.7221C56.2015 20.5745 56.5657 19.971 56.4182 19.3741C56.2706 18.7772 55.6669 18.4126 55.0702 18.5605C52.4596 19.2059 47.6122 21.1056 44.4784 26.5806Z"
        fill="#FF8700" />
    <path
        d="M15.7917 11.9887C15.5455 12.5521 15.8024 13.2085 16.3658 13.4549C16.4321 13.4838 23.016 16.4504 24.0891 24.4968C24.1706 25.1082 24.7326 25.5344 25.3399 25.4532C25.9494 25.3718 26.3775 24.8119 26.2963 24.2024C25.059 14.9262 17.5757 11.5536 17.2577 11.4147C16.6944 11.1686 16.0383 11.4255 15.7917 11.9887Z"
        fill="#FF8700" />
    <path
        d="M7.58059 19.374C7.43319 19.9709 7.79746 20.5745 8.39419 20.722C11.1613 21.4059 15.0025 23.1693 17.5881 27.6865C17.8938 28.2206 18.5744 28.405 19.1073 28.0996C19.6409 27.7941 19.8259 27.114 19.5204 26.5805C16.3867 21.1056 11.539 19.2057 8.92857 18.5604C8.33125 18.4127 7.72814 18.7774 7.58059 19.374Z"
        fill="#FF8700" />
    <path
        d="M52.377 11.3215C51.762 11.3215 51.2637 11.8198 51.2637 12.4348C51.2637 13.0498 51.762 13.5481 52.377 13.5481H53.1522V14.3234C53.1522 14.9384 53.6505 15.4367 54.2655 15.4367C54.8805 15.4367 55.3788 14.9384 55.3788 14.3234V13.5481H56.1541C56.7691 13.5481 57.2674 13.0498 57.2674 12.4348C57.2674 11.8198 56.7691 11.3215 56.1541 11.3215H55.3788V10.5464C55.3788 9.93141 54.8805 9.43311 54.2655 9.43311C53.6505 9.43311 53.1522 9.93141 53.1522 10.5464V11.3215H52.377Z"
        fill="#FF8700" />
    <path
        d="M7.54775 26.7489H6.77246C6.15748 26.7489 5.65918 27.2472 5.65918 27.8622C5.65918 28.4772 6.15748 28.9755 6.77246 28.9755H7.54775V29.7508C7.54775 30.3657 8.04605 30.8641 8.66103 30.8641C9.27601 30.8641 9.77431 30.3657 9.77431 29.7508V28.9755H10.5496C11.1646 28.9755 11.6629 28.4772 11.6629 27.8622C11.6629 27.2472 11.1646 26.7489 10.5496 26.7489H9.77431V25.9736C9.77431 25.3587 9.27601 24.8604 8.66103 24.8604C8.04605 24.8604 7.54775 25.3587 7.54775 25.9736V26.7489Z"
        fill="#FF8700" />
    <path
        d="M45.0046 3.43129C43.9872 2.91071 43.1418 2.06356 42.6244 1.04586C41.9145 -0.348742 39.9286 -0.348594 39.2187 1.04615C38.7014 2.06356 37.8559 2.91086 36.8386 3.43115C35.4448 4.14396 35.4541 6.14612 36.8319 6.84869C37.8449 7.36526 38.6889 8.20707 39.2082 9.21913C39.9147 10.5958 41.9285 10.5961 42.6352 9.21899C43.1545 8.20722 43.9985 7.36541 45.0116 6.84854C46.3888 6.14612 46.3988 4.14455 45.0046 3.43129ZM40.9215 7.72493C40.2823 6.67516 39.3882 5.78111 38.3385 5.14177C39.3887 4.50259 40.2824 3.60942 40.9216 2.56039C41.561 3.60942 42.4546 4.50259 43.5045 5.14177C42.4549 5.78111 41.5608 6.67501 40.9215 7.72493Z"
        fill="#252836" />
    <path
        d="M22.3234 11.4313C22.9559 12.6633 24.7541 12.6652 25.3867 11.4313C25.7486 10.7259 26.3369 10.1391 27.043 9.77897C28.2675 9.15463 28.2944 7.36533 27.0387 6.72243C27.0386 6.72228 27.0384 6.72228 27.0383 6.72214C26.3292 6.3595 25.74 5.76915 25.3792 5.0596C24.7446 3.81196 22.966 3.81167 22.3309 5.05975C21.9702 5.769 21.3811 6.3595 20.6711 6.72258C19.434 7.35627 19.4246 9.14542 20.6672 9.77897C21.3732 10.1389 21.9615 10.7259 22.3234 11.4313ZM23.855 6.82782C24.2469 7.37691 24.7305 7.86038 25.28 8.25196C24.7308 8.6437 24.2469 9.12746 23.855 9.67699C23.4632 9.12776 22.9795 8.6437 22.4301 8.25196C22.9796 7.86023 23.4634 7.37691 23.855 6.82782Z"
        fill="#252836" />
</svg>
